<?xml version="1.0" standalone="no"?>
<!DOCTYPE svg PUBLIC "-//W3C//DTD SVG 20010904//EN"
 "http://www.w3.org/TR/2001/REC-SVG-20010904/DTD/svg10.dtd">
<svg version="1.0" xmlns="http://www.w3.org/2000/svg"
 width="170.000000pt" height="170.000000pt" viewBox="0 0 170.000000 170.000000"
 preserveAspectRatio="xMidYMid meet">
<metadata>
Created by potrace 1.16, written by Peter Selinger 2001-2019
</metadata>
<g transform="translate(0.000000,170.000000) scale(0.100000,-0.100000)"
fill="#000000" stroke="none">
<path d="M735 1660 c-32 -6 -84 -17 -115 -26 -57 -16 -220 -90 -220 -100 0 -3
4 -2 10 1 27 17 162 -52 176 -90 3 -7 -20 -46 -50 -87 -31 -40 -56 -81 -56
-90 0 -19 48 -48 80 -48 11 0 20 -4 20 -9 0 -5 8 -7 19 -4 10 2 39 -5 64 -16
58 -27 56 -27 125 8 76 38 130 53 227 61 l80 7 -65 1 c-75 2 -163 -18 -235
-53 -27 -13 -51 -22 -53 -20 -9 8 49 94 76 113 43 31 116 51 252 67 154 19
147 19 124 -6 -15 -17 -16 -23 -5 -41 16 -25 12 -28 -46 -44 -27 -7 -38 -13
-26 -13 28 -1 103 28 103 40 0 4 -7 12 -17 17 -15 9 -14 13 5 44 l22 35 -77
51 c-111 73 -167 95 -238 96 -48 1 -69 -4 -105 -25 -25 -15 -65 -32 -90 -38
-25 -7 -62 -19 -83 -28 -38 -16 -38 -16 -65 10 -26 26 -26 27 -7 42 11 8 54
32 97 54 172 88 351 74 506 -39 49 -35 84 -85 118 -167 13 -32 24 -51 24 -43
0 26 -56 135 -90 174 -18 20 -31 38 -29 39 2 2 19 10 38 18 l35 16 -76 31
c-42 18 -105 39 -140 47 -81 19 -237 26 -313 15z m274 -135 c32 -11 167 -90
190 -111 10 -9 -12 -14 -136 -28 -72 -9 -156 -25 -186 -36 -61 -23 -119 -78
-143 -136 -8 -19 -17 -34 -20 -34 -2 0 -22 9 -44 20 -22 11 -46 20 -55 20 -18
0 -19 17 -1 50 12 21 12 29 0 52 -8 16 -20 28 -26 28 -6 0 -3 -9 7 -20 16 -18
17 -25 6 -60 -10 -35 -16 -40 -40 -40 -16 0 -39 9 -52 19 l-24 19 38 53 c20
30 46 65 58 78 l20 24 36 -34 c37 -35 37 -22 0 19 -19 20 -19 24 -6 38 9 8 42
22 74 30 33 9 80 27 104 40 54 28 135 32 200 9z"/>
<path d="M262 1420 c-110 -110 -191 -254 -229 -406 -11 -47 -16 -109 -16 -194
1 -148 22 -242 83 -365 39 -80 159 -242 187 -252 16 -6 102 83 157 162 20 28
41 71 48 97 11 43 10 53 -16 125 -97 269 -98 273 -103 388 -2 61 0 130 5 155
9 43 10 44 20 20 7 -17 11 -19 11 -8 1 9 -20 59 -45 110 -42 87 -45 98 -42
161 2 37 2 67 1 67 -1 0 -28 -27 -61 -60z"/>
<path d="M1380 1350 c-24 -49 -47 -90 -51 -90 -4 0 -9 10 -12 23 -8 45 4 -181
14 -255 5 -42 24 -118 40 -170 52 -158 38 -251 -45 -290 -40 -19 -40 -19 -8
-12 32 6 34 5 27 -17 -37 -118 -149 -179 -329 -179 -148 0 -239 37 -283 115
-13 22 -23 35 -23 29 0 -20 45 -78 79 -101 51 -34 125 -53 212 -53 l77 0 11
-45 c15 -59 59 -107 143 -156 l69 -41 57 43 c158 119 271 292 319 485 11 47
16 109 16 194 -1 148 -22 242 -83 365 -37 74 -161 245 -179 245 -4 0 -27 -40
-51 -90z"/>
<path d="M572 756 c-2 -394 -4 -438 -18 -432 -8 3 -24 1 -35 -4 -17 -9 -19
-22 -19 -106 0 -52 5 -104 10 -115 6 -10 32 -30 59 -43 44 -23 50 -24 70 -10
19 14 21 24 21 105 0 102 -15 145 -55 155 l-25 6 -3 442 -2 441 -3 -439z"/>
</g>
</svg>
